{"title":"Bunraku [2010] DVDRip XviD - CODY","uid":6708244,"size":1468077002,"categoryP":"video","categoryS":"movies","magnet":"?xt=urn:btih:030e4f78ec34e41cd6927a66df17f3f5dbeba02f&amp;dn=Bunraku+%5B2010%5D+DVDRip+XviD+-+CODY&amp;tr=udp%3A%2F%2Ftracker.openbittorrent.com%3A80&amp;tr=udp%3A%2F%2Fopen.demonii.com%3A1337&amp;tr=udp%3A%2F%2Ftracker.coppersurfer.tk%3A6969&amp;tr=udp%3A%2F%2Fexodus.desync.com%3A6969","seeders":1,"leechers":0,"uploader":"CODYBOSS1969","files":4,"time":1317260766,"description":"General\nComplete name                    : Bunraku [2010] DVDRip XviD - CODY.avi\nFormat                           : AVI\nFormat/Info                      : Audio Video Interleave\nFile size                        : 1.37 GiB\nDuration                         : 1h 59mn\nOverall bit rate                 : 1 634 Kbps\nWriting application              : VirtualDubMod 1.5.4.1 (build 2178/release)\nWriting library                  : VirtualDubMod build 2178/release\n\nVideo\nID                               : 0\nFormat                           : MPEG-4 Visual\nFormat profile                   : Advanced Simple@L5\nFormat settings, BVOP            : 1\nFormat settings, QPel            : No\nFormat settings, GMC             : No warppoints\nFormat settings, Matrix          : Custom\nCodec ID                         : XVID\nCodec ID/Hint                    : XviD\nDuration                         : 1h 59mn\nBit rate                         : 1 498 Kbps\nWidth                            : 720 pixels\nHeight                           : 304 pixels\nDisplay aspect ratio             : 2.35:1\nFrame rate                       : 25.000 fps\nColor space                      : YUV\nChroma subsampling               : 4:2:0\nBit depth                        : 8 bits\nScan type                        : Progressive\nCompression mode                 : Lossy\nBits/(Pixel*Frame)               : 0.274\nStream size                      : 1.25 GiB (92%)\nWriting library                  : XviD 64\n\nAudio\nID                               : 1\nFormat                           : MPEG Audio\nFormat version                   : Version 1\nFormat profile                   : Layer 3\nMode                             : Joint stereo\nMode extension                   : MS Stereo\nCodec ID                         : 55\nCodec ID/Hint                    : MP3\nDuration                         : 1h 59mn\nBit rate mode                    : Constant\nBit rate                         : 128 Kbps\nChannel(s)                       : 2 channels\nSampling rate                    : 48.0 KHz\nCompression mode                 : Lossy\nStream size                      : 110 MiB (8%)\nAlignment                        : Aligned on interleaves\nInterleave, duration             : 80 ms (2.00 video frames)\nInterleave, preload duration     : 504 ms\nWriting library                  : LAME3.98r\nEncoding settings                : -m j -V 4 -q 2 -lowpass 17 -b 128\nLanguage                         : English\n\n\n\n\nIMDB link:                        &lt;a href=&quot; http://www.imdb.com/title/tt1181795/&quot; rel=&quot;nofollow&quot; target=&quot;_NEW&quot;&gt; http://www.imdb.com/title/tt1181795/&lt;/a&gt;\n\n\n\nSubtitles included               : Romanian\n\n\n\n\nPlease seed at least 1,5:1. This way this torrent has a chance to survive!\n\n\n\n\nThanks. ENJOY !!!\n","torrent":{"xt":"urn:btih:030e4f78ec34e41cd6927a66df17f3f5dbeba02f","amp;dn":"Bunraku+%5B2010%5D+DVDRip+XviD+-+CODY","amp;tr":["udp%3A%2F%2Ftracker.openbittorrent.com%3A80","udp%3A%2F%2Fopen.demonii.com%3A1337","udp%3A%2F%2Ftracker.coppersurfer.tk%3A6969","udp%3A%2F%2Fexodus.desync.com%3A6969"],"infoHash":"030e4f78ec34e41cd6927a66df17f3f5dbeba02f","infoHashBuffer":{"type":"Buffer","data":[3,14,79,120,236,52,228,28,214,146,122,102,223,23,243,245,219,235,160,47]},"announce":[],"urlList":[]}}